<svg width="54" height="54" viewBox="0 0 54 54" fill="none" xmlns="http://www.w3.org/2000/svg">
<rect x="0.5" y="0.5" width="53" height="53" rx="26.5" stroke="black"/>
<path d="M16.9122 31.5441V23.9841L15.5402 23.7601V22.8641H24.2202L25.2842 25.0481H24.2762C23.4362 24.0961 22.1202 23.7601 20.6642 23.7601C19.8242 23.7601 19.1382 23.8581 18.5362 24.0121V27.3441H22.0642L22.2742 26.0841H23.1982V29.5421H22.2742L22.0642 28.3241H18.5362V31.5441L19.9642 31.7681V32.6641H15.5402V31.7681L16.9122 31.5441ZM32.6045 31.5441C33.2065 31.6561 33.9765 31.7401 34.5925 31.7401C36.1605 31.7401 37.2245 31.2081 37.2245 29.9621C37.2245 28.6881 36.0905 28.1281 34.2565 28.1281H32.6045V31.5441ZM32.6045 27.1761H34.0325C35.5025 27.1761 36.6645 26.8261 36.6645 25.4821C36.6645 24.2501 35.7265 23.7741 34.3685 23.7741C33.7525 23.7741 33.1505 23.8721 32.6045 23.9841V27.1761ZM39.1285 30.0461C39.1285 31.9361 37.3645 32.7201 35.1805 32.7201C34.5925 32.7201 33.4165 32.6641 32.5485 32.6641H29.6085V31.7541L30.9805 31.5581V23.9701L29.6085 23.7741V22.8641H32.3525C33.1365 22.8641 33.9625 22.8081 34.5645 22.8081C36.6785 22.8081 38.6245 23.5361 38.6245 25.2581C38.6245 26.7141 37.2245 27.2041 36.0485 27.5121V27.5681C37.8825 27.8621 39.1285 28.4361 39.1285 30.0461Z" fill="black"/>
</svg>
