<svg width="370" height="60" viewBox="0 0 370 60" fill="none" xmlns="http://www.w3.org/2000/svg">
<rect x="0.5" y="0.5" width="369" height="59" rx="29.5" stroke="#B5B1A9"/>
<path d="M30 22L31.8885 28.1115H38L33.0557 31.8885L34.9443 38L30 34.2229L25.0557 38L26.9443 31.8885L22 28.1115H28.1115L30 22Z" fill="black"/>
<path d="M53.058 23.684C55.938 23.684 57.414 25.844 57.414 29.012C57.414 32.99 54.732 36.122 50.25 36.752L50.106 35.744C52.914 35.258 54.372 33.566 54.948 31.316C54.444 31.676 53.742 31.964 52.734 31.964C50.43 31.964 48.774 30.416 48.774 28.04C48.774 25.592 50.412 23.684 53.058 23.684ZM53.238 30.74C54.102 30.74 54.678 30.524 55.164 30.182C55.218 29.732 55.254 29.246 55.254 28.76C55.254 26.672 54.696 24.818 53.058 24.818C51.834 24.818 50.898 25.808 50.898 27.896C50.898 29.84 51.726 30.74 53.238 30.74ZM58.8719 35.42C58.8719 34.7 59.3759 34.124 60.1679 34.124C60.9599 34.124 61.4639 34.7 61.4639 35.42C61.4639 36.14 60.9599 36.716 60.1679 36.716C59.3759 36.716 58.8719 36.14 58.8719 35.42ZM70.3123 31.604H72.0403V32.828H70.3123V36.5H68.4763V32.828H63.1123V31.604L68.4763 23.9H70.3123V31.604ZM64.7683 31.604H68.4763V26.276L64.7683 31.604Z" fill="black"/>
<rect x="100.5" y="5.5" width="264" height="49" rx="24.5" stroke="black"/>
<path d="M127.71 29.568H129.25C130.79 29.568 131.854 29.176 131.854 27.888C131.854 26.642 130.874 26.124 129.432 26.124C128.858 26.124 128.256 26.208 127.71 26.32V29.568ZM130.538 30.408C131.028 30.814 131.546 31.262 132.33 32.2L133.786 33.936L134.794 34.048V35H132.442C131.938 34.384 129.866 31.668 128.802 30.492H127.71V33.88L129.11 34.104V35H124.714V34.104L126.086 33.88V26.32L124.714 26.096V25.2H127.654C128.256 25.2 129.194 25.172 129.642 25.172C132.232 25.172 133.786 26.152 133.786 27.818C133.786 29.54 132.148 30.296 130.538 30.408ZM142.216 33.838C142.874 33.992 143.616 34.076 144.624 34.076C146.108 34.076 147.354 33.88 148.012 32.816H149.188L147.956 35H139.22V34.104L140.592 33.88V26.32L139.22 26.096V25.2H147.452L148.628 27.048H147.62C146.878 26.278 145.534 26.096 144.33 26.096C143.322 26.096 142.594 26.194 142.216 26.292V29.512H145.744L145.968 28.252H146.892V31.724H145.968L145.744 30.492H142.216V33.838ZM158.781 25.2L161.945 33.88L163.065 34.104V35H158.949V34.104L160.265 33.88L159.509 31.696H156.261L155.477 33.88L156.653 34.104V35H153.097V34.104L154.273 33.88L157.521 25.2H158.781ZM156.597 30.772H159.173L157.913 27.16H157.857L156.597 30.772ZM170.53 33.852C170.964 33.95 171.65 34.048 172.364 34.048C174.884 34.048 175.962 32.592 175.962 30.058C175.962 27.482 174.884 26.124 172.364 26.124C171.748 26.124 171.076 26.208 170.53 26.32V33.852ZM177.838 30.086C177.838 32.984 175.878 35.056 172.434 35.056C171.874 35.056 171.048 35 170.446 35H167.534V34.104L168.906 33.88V26.32L167.534 26.096V25.2H170.474C171.034 25.2 171.972 25.172 172.364 25.172C175.822 25.172 177.838 27.16 177.838 30.086ZM193.636 29.568H195.176C196.716 29.568 197.78 29.176 197.78 27.888C197.78 26.642 196.8 26.124 195.358 26.124C194.784 26.124 194.182 26.208 193.636 26.32V29.568ZM196.464 30.408C196.954 30.814 197.472 31.262 198.256 32.2L199.712 33.936L200.72 34.048V35H198.368C197.864 34.384 195.792 31.668 194.728 30.492H193.636V33.88L195.036 34.104V35H190.64V34.104L192.012 33.88V26.32L190.64 26.096V25.2H193.58C194.182 25.2 195.12 25.172 195.568 25.172C198.158 25.172 199.712 26.152 199.712 27.818C199.712 29.54 198.074 30.296 196.464 30.408ZM208.142 33.838C208.8 33.992 209.542 34.076 210.55 34.076C212.034 34.076 213.28 33.88 213.938 32.816H215.114L213.882 35H205.146V34.104L206.518 33.88V26.32L205.146 26.096V25.2H213.378L214.554 27.048H213.546C212.804 26.278 211.46 26.096 210.256 26.096C209.248 26.096 208.52 26.194 208.142 26.292V29.512H211.67L211.894 28.252H212.818V31.724H211.894L211.67 30.492H208.142V33.838ZM223.378 35L220.186 26.32L219.066 26.096V25.2H223.21V26.096L221.852 26.32L224.302 32.872H224.358L226.78 26.32L225.59 26.096V25.2H229.034V26.096L227.858 26.32L224.666 35H223.378ZM233.461 26.096V25.2H237.717V26.096L236.401 26.32V33.88L237.717 34.104V35H233.461V34.104L234.777 33.88V26.32L233.461 26.096ZM245.671 33.838C246.329 33.992 247.071 34.076 248.079 34.076C249.563 34.076 250.809 33.88 251.467 32.816H252.643L251.411 35H242.675V34.104L244.047 33.88V26.32L242.675 26.096V25.2H250.907L252.083 27.048H251.075C250.333 26.278 248.989 26.096 247.785 26.096C246.777 26.096 246.049 26.194 245.671 26.292V29.512H249.199L249.423 28.252H250.347V31.724H249.423L249.199 30.492H245.671V33.838ZM263.371 26.32L262.223 26.096V25.2H266.451V26.096L265.107 26.32L267.263 32.396H267.319L269.531 26.32L268.299 26.096V25.2H271.855V26.096L270.735 26.32L267.655 35H266.367L264.323 28.98H264.267L262.139 35H260.879L257.687 26.32L256.567 26.096V25.2H260.655V26.096L259.451 26.32L261.747 32.48H261.803L263.735 27.384L263.371 26.32ZM276.159 32.2H277.223C278.259 33.278 279.827 34.132 281.255 34.132C282.655 34.132 283.467 33.488 283.467 32.592C283.467 31.584 282.333 31.122 280.359 30.856L279.715 30.772C277.867 30.548 276.215 29.778 276.215 27.832C276.215 26.152 277.727 25.032 279.743 25.032C280.919 25.032 281.815 25.368 282.543 25.928L282.767 25.2H283.495L284.615 27.944H283.607C282.599 26.88 281.199 26.096 279.743 26.096C278.567 26.096 277.671 26.544 277.671 27.44C277.671 28.266 278.567 28.658 279.813 28.868L280.737 29.022C282.823 29.358 284.951 30.086 284.951 32.144C284.951 34.048 283.481 35.168 281.255 35.168C279.967 35.168 278.959 34.72 278.287 34.104L277.951 35H277.111L276.159 32.2Z" fill="black"/>
<path d="M341.354 30.3536C341.549 30.1583 341.549 29.8417 341.354 29.6464L338.172 26.4645C337.976 26.2692 337.66 26.2692 337.464 26.4645C337.269 26.6597 337.269 26.9763 337.464 27.1716L340.293 30L337.464 32.8284C337.269 33.0237 337.269 33.3403 337.464 33.5355C337.66 33.7308 337.976 33.7308 338.172 33.5355L341.354 30.3536ZM316 30.5H341V29.5H316V30.5Z" fill="black"/>
</svg>
