<svg width="172" height="58" viewBox="0 0 172 58" fill="none" xmlns="http://www.w3.org/2000/svg">
<rect x="0.5" y="0.5" width="171" height="57" rx="28.5" stroke="#B5B1A9"/>
<rect x="8.5" y="8.5" width="41" height="41" rx="20.5" stroke="black"/>
<path d="M18.6464 28.6464C18.4512 28.8417 18.4512 29.1583 18.6464 29.3536L21.8284 32.5355C22.0237 32.7308 22.3403 32.7308 22.5355 32.5355C22.7308 32.3403 22.7308 32.0237 22.5355 31.8284L19.7071 29L22.5355 26.1716C22.7308 25.9763 22.7308 25.6597 22.5355 25.4645C22.3403 25.2692 22.0237 25.2692 21.8284 25.4645L18.6464 28.6464ZM39 28.5L19 28.5L19 29.5L39 29.5L39 28.5Z" fill="black"/>
<rect x="122.5" y="8.5" width="41" height="41" rx="20.5" stroke="black"/>
<path d="M153.354 29.3536C153.549 29.1583 153.549 28.8417 153.354 28.6464L150.172 25.4645C149.976 25.2692 149.66 25.2692 149.464 25.4645C149.269 25.6597 149.269 25.9763 149.464 26.1716L152.293 29L149.464 31.8284C149.269 32.0237 149.269 32.3403 149.464 32.5355C149.66 32.7308 149.976 32.7308 150.172 32.5355L153.354 29.3536ZM133 29.5H153V28.5H133V29.5Z" fill="black"/>
<path d="M66.9867 26.328H65.8107V25.656L67.6827 24.6H68.2107V32.04L69.3147 32.28V33H65.8587V32.28L66.9867 32.04V26.328Z" fill="black"/>
<path d="M103.608 33.168C101.688 33.168 100.704 31.728 100.704 29.616C100.704 26.964 102.492 24.876 105.48 24.456L105.576 25.128C103.692 25.452 102.72 26.604 102.336 28.092C102.684 27.84 103.152 27.648 103.824 27.648C105.36 27.648 106.464 28.68 106.464 30.264C106.464 31.896 105.372 33.168 103.608 33.168ZM103.488 28.464C102.912 28.464 102.516 28.608 102.192 28.836C102.156 29.16 102.144 29.46 102.144 29.784C102.144 31.176 102.516 32.412 103.608 32.412C104.424 32.412 105.048 31.752 105.048 30.36C105.048 29.064 104.496 28.464 103.488 28.464Z" fill="black"/>
<path d="M85 9L85 50" stroke="black"/>
</svg>
