<svg width="1024" height="876" viewBox="0 0 1024 876" fill="none" xmlns="http://www.w3.org/2000/svg">
<g clip-path="url(#clip0_1390_15058)">
<rect width="1024" height="876" fill="#F8F7F3"/>
<path d="M938.667 22.5547L938.667 876.599" stroke="#B5B1A9" stroke-width="0.711111"/>
<path d="M896 22.5547L896 876.599" stroke="#B5B1A9" stroke-width="0.711111"/>
<path d="M981.333 22.5547L981.333 876.599" stroke="#B5B1A9" stroke-width="0.711111"/>
<path d="M853.333 22.5547L853.333 876.599" stroke="#B5B1A9" stroke-width="0.711111"/>
<path d="M810.667 22.5547L810.667 876.599" stroke="#B5B1A9" stroke-width="0.711111"/>
<path d="M768 22.5547L768 876.599" stroke="#B5B1A9" stroke-width="0.711111"/>
<path d="M725.333 22.5547L725.333 876.599" stroke="#B5B1A9" stroke-width="0.711111"/>
<path d="M682.667 22.5547L682.667 876.599" stroke="#B5B1A9" stroke-width="0.711111"/>
<path d="M640 22.5547L640 876.599" stroke="#B5B1A9" stroke-width="0.711111"/>
<path d="M597.333 22.5547L597.333 876.599" stroke="#B5B1A9" stroke-width="0.711111"/>
<path d="M554.667 22.5547L554.667 876.599" stroke="#B5B1A9" stroke-width="0.711111"/>
<path d="M512 22.5547L512 876.599" stroke="#B5B1A9" stroke-width="0.711111"/>
<path d="M469.333 22.5547L469.333 876.599" stroke="#B5B1A9" stroke-width="0.711111"/>
<path d="M426.667 22.5547L426.667 876.599" stroke="#B5B1A9" stroke-width="0.711111"/>
<path d="M384 22.5547L384 876.599" stroke="#B5B1A9" stroke-width="0.711111"/>
<path d="M341.333 22.5547L341.333 876.599" stroke="#B5B1A9" stroke-width="0.711111"/>
<path d="M298.667 22.5547L298.667 876.599" stroke="#B5B1A9" stroke-width="0.711111"/>
<path d="M256 22.5547L256 876.599" stroke="#B5B1A9" stroke-width="0.711111"/>
<path d="M213.333 22.5547L213.333 876.599" stroke="#B5B1A9" stroke-width="0.711111"/>
<path d="M170.667 22.5547L170.667 876.599" stroke="#B5B1A9" stroke-width="0.711111"/>
<path d="M128 22.5547L128 876.599" stroke="#B5B1A9" stroke-width="0.711111"/>
<path d="M85.333 22.5547L85.333 876.599" stroke="#B5B1A9" stroke-width="0.711111"/>
<path d="M42.667 22.5547L42.667 876.599" stroke="#B5B1A9" stroke-width="0.711111"/>
<path d="M1024 833.93L-3.55244e-05 833.93" stroke="#B5B1A9" stroke-width="0.711111"/>
<path d="M1024 705.93L-3.55244e-05 705.93" stroke="#B5B1A9" stroke-width="0.711111"/>
<path d="M1024 791.258L-3.55244e-05 791.258" stroke="#B5B1A9" stroke-width="0.711111"/>
<path d="M1024 663.258L-3.55244e-05 663.258" stroke="#B5B1A9" stroke-width="0.711111"/>
<path d="M1024 748.883L-3.55244e-05 748.883" stroke="#B5B1A9" stroke-width="0.711111"/>
<path d="M1024 620.594L-3.55244e-05 620.594" stroke="#B5B1A9" stroke-width="0.711111"/>
<path d="M1024 577.93L-3.55244e-05 577.93" stroke="#B5B1A9" stroke-width="0.711111"/>
<path d="M1024 535.258L-3.55244e-05 535.258" stroke="#B5B1A9" stroke-width="0.711111"/>
<path d="M1024 492.594L-3.55244e-05 492.594" stroke="#B5B1A9" stroke-width="0.711111"/>
<path d="M1024 449.93L-3.55244e-05 449.93" stroke="#B5B1A9" stroke-width="0.711111"/>
<path d="M1024 407.258L-3.55244e-05 407.258" stroke="#B5B1A9" stroke-width="0.711111"/>
<path d="M1024 364.594L-3.55244e-05 364.594" stroke="#B5B1A9" stroke-width="0.711111"/>
<path d="M1024 321.93L-3.55244e-05 321.93" stroke="#B5B1A9" stroke-width="0.711111"/>
<path d="M1024 279.258L-3.55244e-05 279.258" stroke="#B5B1A9" stroke-width="0.711111"/>
<path d="M1024 236.594L-3.55244e-05 236.594" stroke="#B5B1A9" stroke-width="0.711111"/>
<path d="M1024 193.93L-3.55244e-05 193.93" stroke="#B5B1A9" stroke-width="0.711111"/>
<path d="M1024 150.695L-3.55244e-05 150.695" stroke="#B5B1A9" stroke-width="0.711111"/>
<path d="M1024 108.594L-3.55244e-05 108.594" stroke="#B5B1A9" stroke-width="0.711111"/>
<path d="M1024 65.9297L-3.55244e-05 65.9296" stroke="#B5B1A9" stroke-width="0.711111"/>
<path d="M1024 22.5547L-3.55244e-05 22.5546" stroke="#B5B1A9" stroke-width="0.711111"/>
<path d="M37.7728 7.15469V6.47469H37.9328C39.1728 6.47469 39.6928 5.83469 39.6928 5.19469C39.6928 4.55469 39.2528 4.15469 38.5328 4.15469C37.8028 4.15469 37.3228 4.48469 37.0928 5.15469L36.4928 4.99469C36.8128 3.99469 37.6028 3.43469 38.7728 3.43469C39.9328 3.43469 40.8128 4.03469 40.8128 5.03469C40.8128 6.04469 39.9728 6.51469 38.9728 6.75469V6.79469C40.0428 6.92469 41.0128 7.42469 41.0128 8.59469C41.0128 9.75469 40.0928 10.6747 38.6928 10.6747C37.2928 10.6747 36.3328 10.1147 36.3328 9.35469C36.3328 9.03469 36.5328 8.83469 36.8528 8.83469C37.7328 8.83469 37.7328 10.0347 38.6928 10.0347C39.3728 10.0347 39.8928 9.51469 39.8928 8.63469C39.8928 7.76469 39.3728 7.15469 37.9328 7.15469H37.7728ZM43.5345 7.15469V6.47469H43.6945C44.9345 6.47469 45.4545 5.83469 45.4545 5.19469C45.4545 4.55469 45.0145 4.15469 44.2945 4.15469C43.5645 4.15469 43.0845 4.48469 42.8545 5.15469L42.2545 4.99469C42.5745 3.99469 43.3645 3.43469 44.5345 3.43469C45.6945 3.43469 46.5745 4.03469 46.5745 5.03469C46.5745 6.04469 45.7345 6.51469 44.7345 6.75469V6.79469C45.8045 6.92469 46.7745 7.42469 46.7745 8.59469C46.7745 9.75469 45.8545 10.6747 44.4545 10.6747C43.0545 10.6747 42.0945 10.1147 42.0945 9.35469C42.0945 9.03469 42.2945 8.83469 42.6145 8.83469C43.4945 8.83469 43.4945 10.0347 44.4545 10.0347C45.1345 10.0347 45.6545 9.51469 45.6545 8.63469C45.6545 7.76469 45.1345 7.15469 43.6945 7.15469H43.5345ZM47.0229 1.89469C47.0229 1.10469 47.6329 0.484687 48.4729 0.484687C49.3129 0.484687 49.9229 1.10469 49.9229 1.89469C49.9229 2.68469 49.3129 3.30469 48.4729 3.30469C47.6329 3.30469 47.0229 2.68469 47.0229 1.89469ZM47.5629 1.89469C47.5629 2.48469 47.9529 2.80469 48.4729 2.80469C48.9929 2.80469 49.3829 2.48469 49.3829 1.89469C49.3829 1.30469 48.9929 0.984687 48.4729 0.984687C47.9529 0.984687 47.5629 1.30469 47.5629 1.89469Z" fill="#B5B1A9"/>
<path d="M80.5384 7.15469V6.47469H80.6984C81.9384 6.47469 82.4584 5.83469 82.4584 5.19469C82.4584 4.55469 82.0184 4.15469 81.2984 4.15469C80.5684 4.15469 80.0884 4.48469 79.8584 5.15469L79.2584 4.99469C79.5784 3.99469 80.3684 3.43469 81.5384 3.43469C82.6984 3.43469 83.5784 4.03469 83.5784 5.03469C83.5784 6.04469 82.7384 6.51469 81.7384 6.75469V6.79469C82.8084 6.92469 83.7784 7.42469 83.7784 8.59469C83.7784 9.75469 82.8584 10.6747 81.4584 10.6747C80.0584 10.6747 79.0984 10.1147 79.0984 9.35469C79.0984 9.03469 79.2984 8.83469 79.6184 8.83469C80.4984 8.83469 80.4984 10.0347 81.4584 10.0347C82.1384 10.0347 82.6584 9.51469 82.6584 8.63469C82.6584 7.76469 82.1384 7.15469 80.6984 7.15469H80.5384ZM88.7102 7.83469H89.6702V8.51469H88.7102V10.5547H87.6902V8.51469H84.7102V7.83469L87.6902 3.55469H88.7102V7.83469ZM85.6302 7.83469H87.6902V4.87469L85.6302 7.83469ZM89.8569 1.89469C89.8569 1.10469 90.4669 0.484687 91.3069 0.484687C92.1469 0.484687 92.7569 1.10469 92.7569 1.89469C92.7569 2.68469 92.1469 3.30469 91.3069 3.30469C90.4669 3.30469 89.8569 2.68469 89.8569 1.89469ZM90.3969 1.89469C90.3969 2.48469 90.7869 2.80469 91.3069 2.80469C91.8269 2.80469 92.2169 2.48469 92.2169 1.89469C92.2169 1.30469 91.8269 0.984687 91.3069 0.984687C90.7869 0.984687 90.3969 1.30469 90.3969 1.89469Z" fill="#B5B1A9"/>
<path d="M123.046 7.15469V6.47469H123.206C124.446 6.47469 124.966 5.83469 124.966 5.19469C124.966 4.55469 124.526 4.15469 123.806 4.15469C123.076 4.15469 122.596 4.48469 122.366 5.15469L121.766 4.99469C122.086 3.99469 122.876 3.43469 124.046 3.43469C125.206 3.43469 126.086 4.03469 126.086 5.03469C126.086 6.04469 125.246 6.51469 124.246 6.75469V6.79469C125.316 6.92469 126.286 7.42469 126.286 8.59469C126.286 9.75469 125.366 10.6747 123.966 10.6747C122.566 10.6747 121.606 10.1147 121.606 9.35469C121.606 9.03469 121.806 8.83469 122.126 8.83469C123.006 8.83469 123.006 10.0347 123.966 10.0347C124.646 10.0347 125.166 9.51469 125.166 8.63469C125.166 7.76469 124.646 7.15469 123.206 7.15469H123.046ZM128.627 5.99469C128.937 5.91469 129.297 5.85469 129.687 5.85469C131.157 5.85469 132.187 6.72469 132.187 8.20469C132.187 9.67469 131.187 10.6747 129.627 10.6747C128.317 10.6747 127.387 9.94469 127.387 9.17469C127.387 8.77469 127.627 8.55469 127.957 8.55469C128.807 8.55469 128.367 9.99469 129.677 9.99469C130.557 9.99469 131.067 9.37469 131.067 8.41469C131.067 7.41469 130.487 6.77469 129.237 6.77469C128.757 6.77469 128.227 6.87469 127.787 7.03469L128.067 3.55469H130.947L131.187 2.99469H131.707L131.347 4.43469H128.747L128.627 5.99469ZM132.95 1.89469C132.95 1.10469 133.56 0.484687 134.4 0.484687C135.24 0.484687 135.85 1.10469 135.85 1.89469C135.85 2.68469 135.24 3.30469 134.4 3.30469C133.56 3.30469 132.95 2.68469 132.95 1.89469ZM133.49 1.89469C133.49 2.48469 133.88 2.80469 134.4 2.80469C134.92 2.80469 135.31 2.48469 135.31 1.89469C135.31 1.30469 134.92 0.984687 134.4 0.984687C133.88 0.984687 133.49 1.30469 133.49 1.89469Z" fill="#B5B1A9"/>
<path d="M166.041 7.15469V6.47469H166.201C167.441 6.47469 167.961 5.83469 167.961 5.19469C167.961 4.55469 167.521 4.15469 166.801 4.15469C166.071 4.15469 165.591 4.48469 165.361 5.15469L164.761 4.99469C165.081 3.99469 165.871 3.43469 167.041 3.43469C168.201 3.43469 169.081 4.03469 169.081 5.03469C169.081 6.04469 168.241 6.51469 167.241 6.75469V6.79469C168.311 6.92469 169.281 7.42469 169.281 8.59469C169.281 9.75469 168.361 10.6747 166.961 10.6747C165.561 10.6747 164.601 10.1147 164.601 9.35469C164.601 9.03469 164.801 8.83469 165.121 8.83469C166.001 8.83469 166.001 10.0347 166.961 10.0347C167.641 10.0347 168.161 9.51469 168.161 8.63469C168.161 7.76469 167.641 7.15469 166.201 7.15469H166.041ZM172.903 10.6947C171.303 10.6947 170.483 9.49469 170.483 7.73469C170.483 5.52469 171.973 3.78469 174.463 3.43469L174.543 3.99469C172.973 4.26469 172.163 5.22469 171.843 6.46469C172.133 6.25469 172.523 6.09469 173.083 6.09469C174.363 6.09469 175.283 6.95469 175.283 8.27469C175.283 9.63469 174.373 10.6947 172.903 10.6947ZM172.803 6.77469C172.323 6.77469 171.993 6.89469 171.723 7.08469C171.693 7.35469 171.683 7.60469 171.683 7.87469C171.683 9.03469 171.993 10.0647 172.903 10.0647C173.583 10.0647 174.103 9.51469 174.103 8.35469C174.103 7.27469 173.643 6.77469 172.803 6.77469ZM175.555 1.89469C175.555 1.10469 176.165 0.484687 177.005 0.484687C177.845 0.484687 178.455 1.10469 178.455 1.89469C178.455 2.68469 177.845 3.30469 177.005 3.30469C176.165 3.30469 175.555 2.68469 175.555 1.89469ZM176.095 1.89469C176.095 2.48469 176.485 2.80469 177.005 2.80469C177.525 2.80469 177.915 2.48469 177.915 1.89469C177.915 1.30469 177.525 0.984687 177.005 0.984687C176.485 0.984687 176.095 1.30469 176.095 1.89469Z" fill="#B5B1A9"/>
<path d="M208.792 7.15469V6.47469H208.952C210.192 6.47469 210.712 5.83469 210.712 5.19469C210.712 4.55469 210.272 4.15469 209.552 4.15469C208.822 4.15469 208.342 4.48469 208.112 5.15469L207.512 4.99469C207.832 3.99469 208.622 3.43469 209.792 3.43469C210.952 3.43469 211.832 4.03469 211.832 5.03469C211.832 6.04469 210.992 6.51469 209.992 6.75469V6.79469C211.062 6.92469 212.032 7.42469 212.032 8.59469C212.032 9.75469 211.112 10.6747 209.712 10.6747C208.312 10.6747 207.352 10.1147 207.352 9.35469C207.352 9.03469 207.552 8.83469 207.872 8.83469C208.752 8.83469 208.752 10.0347 209.712 10.0347C210.392 10.0347 210.912 9.51469 210.912 8.63469C210.912 7.76469 210.392 7.15469 208.952 7.15469H208.792ZM217.854 4.23469C216.644 5.96469 215.854 7.98469 215.534 10.5547H214.254C214.734 7.96469 215.764 5.92469 217.054 4.47469H214.574C213.894 4.47469 213.654 4.75469 213.494 5.35469H212.894L213.374 3.03469H213.934L214.014 3.55469H217.854V4.23469ZM218.404 1.89469C218.404 1.10469 219.014 0.484687 219.854 0.484687C220.694 0.484687 221.304 1.10469 221.304 1.89469C221.304 2.68469 220.694 3.30469 219.854 3.30469C219.014 3.30469 218.404 2.68469 218.404 1.89469ZM218.944 1.89469C218.944 2.48469 219.334 2.80469 219.854 2.80469C220.374 2.80469 220.764 2.48469 220.764 1.89469C220.764 1.30469 220.374 0.984687 219.854 0.984687C219.334 0.984687 218.944 1.30469 218.944 1.89469Z" fill="#B5B1A9"/>
<path d="M251.739 7.15469V6.47469H251.899C253.139 6.47469 253.659 5.83469 253.659 5.19469C253.659 4.55469 253.219 4.15469 252.499 4.15469C251.769 4.15469 251.289 4.48469 251.059 5.15469L250.459 4.99469C250.779 3.99469 251.569 3.43469 252.739 3.43469C253.899 3.43469 254.779 4.03469 254.779 5.03469C254.779 6.04469 253.939 6.51469 252.939 6.75469V6.79469C254.009 6.92469 254.979 7.42469 254.979 8.59469C254.979 9.75469 254.059 10.6747 252.659 10.6747C251.259 10.6747 250.299 10.1147 250.299 9.35469C250.299 9.03469 250.499 8.83469 250.819 8.83469C251.699 8.83469 251.699 10.0347 252.659 10.0347C253.339 10.0347 253.859 9.51469 253.859 8.63469C253.859 7.76469 253.339 7.15469 251.899 7.15469H251.739ZM259.64 5.11469C259.64 4.47469 259.24 4.03469 258.52 4.03469C257.8 4.03469 257.4 4.47469 257.4 5.03469C257.4 5.59469 257.84 5.96469 258.72 6.43469C259.23 6.16469 259.64 5.75469 259.64 5.11469ZM257.68 6.93469C257.08 6.61469 256.4 6.16469 256.4 5.24469C256.4 4.11469 257.28 3.43469 258.52 3.43469C259.76 3.43469 260.66 4.11469 260.66 5.07469C260.66 5.95469 259.92 6.48469 259.28 6.75469C260.13 7.18469 260.88 7.59469 260.88 8.71469C260.88 9.87469 259.8 10.6747 258.52 10.6747C257.23 10.6747 256.2 9.87469 256.2 8.79469C256.2 7.79469 256.92 7.30469 257.68 6.93469ZM257.24 8.79469C257.24 9.55469 257.72 10.0747 258.52 10.0747C259.32 10.0747 259.76 9.55469 259.76 8.87469C259.76 8.07469 258.96 7.60469 258.24 7.23469C257.67 7.66469 257.24 8.01469 257.24 8.79469ZM261.057 1.89469C261.057 1.10469 261.667 0.484687 262.507 0.484687C263.347 0.484687 263.957 1.10469 263.957 1.89469C263.957 2.68469 263.347 3.30469 262.507 3.30469C261.667 3.30469 261.057 2.68469 261.057 1.89469ZM261.597 1.89469C261.597 2.48469 261.987 2.80469 262.507 2.80469C263.027 2.80469 263.417 2.48469 263.417 1.89469C263.417 1.30469 263.027 0.984687 262.507 0.984687C261.987 0.984687 261.597 1.30469 261.597 1.89469Z" fill="#B5B1A9"/>
<path d="M294.582 7.15469V6.47469H294.742C295.982 6.47469 296.502 5.83469 296.502 5.19469C296.502 4.55469 296.062 4.15469 295.342 4.15469C294.612 4.15469 294.132 4.48469 293.902 5.15469L293.302 4.99469C293.622 3.99469 294.412 3.43469 295.582 3.43469C296.742 3.43469 297.622 4.03469 297.622 5.03469C297.622 6.04469 296.782 6.51469 295.782 6.75469V6.79469C296.852 6.92469 297.822 7.42469 297.822 8.59469C297.822 9.75469 296.902 10.6747 295.502 10.6747C294.102 10.6747 293.142 10.1147 293.142 9.35469C293.142 9.03469 293.342 8.83469 293.662 8.83469C294.542 8.83469 294.542 10.0347 295.502 10.0347C296.182 10.0347 296.702 9.51469 296.702 8.63469C296.702 7.76469 296.182 7.15469 294.742 7.15469H294.582ZM301.264 3.43469C302.864 3.43469 303.684 4.63469 303.684 6.39469C303.684 8.60469 302.194 10.3447 299.704 10.6947L299.624 10.1347C301.184 9.86469 301.994 8.92469 302.314 7.67469C302.034 7.87469 301.644 8.03469 301.084 8.03469C299.804 8.03469 298.884 7.17469 298.884 5.85469C298.884 4.49469 299.794 3.43469 301.264 3.43469ZM301.364 7.35469C301.844 7.35469 302.164 7.23469 302.434 7.04469C302.464 6.79469 302.484 6.52469 302.484 6.25469C302.484 5.09469 302.174 4.06469 301.264 4.06469C300.584 4.06469 300.064 4.61469 300.064 5.77469C300.064 6.85469 300.524 7.35469 301.364 7.35469ZM303.813 1.89469C303.813 1.10469 304.423 0.484687 305.263 0.484687C306.103 0.484687 306.713 1.10469 306.713 1.89469C306.713 2.68469 306.103 3.30469 305.263 3.30469C304.423 3.30469 303.813 2.68469 303.813 1.89469ZM304.353 1.89469C304.353 2.48469 304.743 2.80469 305.263 2.80469C305.783 2.80469 306.173 2.48469 306.173 1.89469C306.173 1.30469 305.783 0.984687 305.263 0.984687C304.743 0.984687 304.353 1.30469 304.353 1.89469Z" fill="#B5B1A9"/>
<path d="M339.568 7.83469H340.528V8.51469H339.568V10.5547H338.548V8.51469H335.568V7.83469L338.548 3.55469H339.568V7.83469ZM336.488 7.83469H338.548V4.87469L336.488 7.83469ZM344.151 10.0547C345.081 10.0547 345.531 8.86469 345.531 7.05469C345.531 5.25469 345.081 4.05469 344.151 4.05469C343.221 4.05469 342.771 5.25469 342.771 7.05469C342.771 8.85469 343.221 10.0547 344.151 10.0547ZM344.151 10.6747C342.421 10.6747 341.571 9.01469 341.571 7.05469C341.571 5.09469 342.421 3.43469 344.151 3.43469C345.881 3.43469 346.731 5.09469 346.731 7.05469C346.731 9.01469 345.881 10.6747 344.151 10.6747ZM346.838 1.89469C346.838 1.10469 347.448 0.484687 348.288 0.484687C349.128 0.484687 349.738 1.10469 349.738 1.89469C349.738 2.68469 349.128 3.30469 348.288 3.30469C347.448 3.30469 346.838 2.68469 346.838 1.89469ZM347.378 1.89469C347.378 2.48469 347.768 2.80469 348.288 2.80469C348.808 2.80469 349.198 2.48469 349.198 1.89469C349.198 1.30469 348.808 0.984687 348.288 0.984687C347.768 0.984687 347.378 1.30469 347.378 1.89469Z" fill="#B5B1A9"/>
<path d="M382.491 7.83469H383.451V8.51469H382.491V10.5547H381.471V8.51469H378.491V7.83469L381.471 3.55469H382.491V7.83469ZM379.411 7.83469H381.471V4.87469L379.411 7.83469ZM385.336 4.99469H384.356V4.43469L385.916 3.55469H386.356V9.75469L387.276 9.95469V10.5547H384.396V9.95469L385.336 9.75469V4.99469ZM387.515 1.89469C387.515 1.10469 388.125 0.484687 388.965 0.484687C389.805 0.484687 390.415 1.10469 390.415 1.89469C390.415 2.68469 389.805 3.30469 388.965 3.30469C388.125 3.30469 387.515 2.68469 387.515 1.89469ZM388.055 1.89469C388.055 2.48469 388.445 2.80469 388.965 2.80469C389.485 2.80469 389.875 2.48469 389.875 1.89469C389.875 1.30469 389.485 0.984687 388.965 0.984687C388.445 0.984687 388.055 1.30469 388.055 1.89469Z" fill="#B5B1A9"/>
<path d="M423.544 7.83469H424.504V8.51469H423.544V10.5547H422.524V8.51469H419.544V7.83469L422.524 3.55469H423.544V7.83469ZM420.464 7.83469H422.524V4.87469L420.464 7.83469ZM428.9 9.59469L429.3 8.79469H429.94L429.5 10.5547H425.3V9.91469L427.22 7.45469C428.02 6.44469 428.46 5.84469 428.46 5.11469C428.46 4.55469 428.14 4.15469 427.46 4.15469C426.78 4.15469 426.34 4.55469 426.1 5.43469L425.46 5.27469C425.7 4.10469 426.39 3.43469 427.64 3.43469C428.88 3.43469 429.66 4.11469 429.66 5.07469C429.66 6.00469 429.02 6.67469 427.98 7.79469L426.3 9.59469H428.9ZM430.062 1.89469C430.062 1.10469 430.672 0.484687 431.512 0.484687C432.352 0.484687 432.962 1.10469 432.962 1.89469C432.962 2.68469 432.352 3.30469 431.512 3.30469C430.672 3.30469 430.062 2.68469 430.062 1.89469ZM430.602 1.89469C430.602 2.48469 430.992 2.80469 431.512 2.80469C432.032 2.80469 432.422 2.48469 432.422 1.89469C432.422 1.30469 432.032 0.984687 431.512 0.984687C430.992 0.984687 430.602 1.30469 430.602 1.89469Z" fill="#B5B1A9"/>
<path d="M466.217 7.83469H467.177V8.51469H466.217V10.5547H465.197V8.51469H462.217V7.83469L465.197 3.55469H466.217V7.83469ZM463.137 7.83469H465.197V4.87469L463.137 7.83469ZM469.5 7.15469V6.47469H469.66C470.9 6.47469 471.42 5.83469 471.42 5.19469C471.42 4.55469 470.98 4.15469 470.26 4.15469C469.53 4.15469 469.05 4.48469 468.82 5.15469L468.22 4.99469C468.54 3.99469 469.33 3.43469 470.5 3.43469C471.66 3.43469 472.54 4.03469 472.54 5.03469C472.54 6.04469 471.7 6.51469 470.7 6.75469V6.79469C471.77 6.92469 472.74 7.42469 472.74 8.59469C472.74 9.75469 471.82 10.6747 470.42 10.6747C469.02 10.6747 468.06 10.1147 468.06 9.35469C468.06 9.03469 468.26 8.83469 468.58 8.83469C469.46 8.83469 469.46 10.0347 470.42 10.0347C471.1 10.0347 471.62 9.51469 471.62 8.63469C471.62 7.76469 471.1 7.15469 469.66 7.15469H469.5ZM472.989 1.89469C472.989 1.10469 473.599 0.484687 474.439 0.484687C475.279 0.484687 475.889 1.10469 475.889 1.89469C475.889 2.68469 475.279 3.30469 474.439 3.30469C473.599 3.30469 472.989 2.68469 472.989 1.89469ZM473.529 1.89469C473.529 2.48469 473.919 2.80469 474.439 2.80469C474.959 2.80469 475.349 2.48469 475.349 1.89469C475.349 1.30469 474.959 0.984687 474.439 0.984687C473.919 0.984687 473.529 1.30469 473.529 1.89469Z" fill="#B5B1A9"/>
<path d="M508.983 7.83469H509.943V8.51469H508.983V10.5547H507.963V8.51469H504.983V7.83469L507.963 3.55469H508.983V7.83469ZM505.903 7.83469H507.963V4.87469L505.903 7.83469ZM514.676 7.83469H515.636V8.51469H514.676V10.5547H513.656V8.51469H510.676V7.83469L513.656 3.55469H514.676V7.83469ZM511.596 7.83469H513.656V4.87469L511.596 7.83469ZM515.823 1.89469C515.823 1.10469 516.433 0.484687 517.273 0.484687C518.113 0.484687 518.723 1.10469 518.723 1.89469C518.723 2.68469 518.113 3.30469 517.273 3.30469C516.433 3.30469 515.823 2.68469 515.823 1.89469ZM516.363 1.89469C516.363 2.48469 516.753 2.80469 517.273 2.80469C517.793 2.80469 518.183 2.48469 518.183 1.89469C518.183 1.30469 517.793 0.984687 517.273 0.984687C516.753 0.984687 516.363 1.30469 516.363 1.89469Z" fill="#B5B1A9"/>
<path d="M551.49 7.83469H552.45V8.51469H551.49V10.5547H550.47V8.51469H547.49V7.83469L550.47 3.55469H551.49V7.83469ZM548.41 7.83469H550.47V4.87469L548.41 7.83469ZM554.593 5.99469C554.903 5.91469 555.263 5.85469 555.653 5.85469C557.123 5.85469 558.153 6.72469 558.153 8.20469C558.153 9.67469 557.153 10.6747 555.593 10.6747C554.283 10.6747 553.353 9.94469 553.353 9.17469C553.353 8.77469 553.593 8.55469 553.923 8.55469C554.773 8.55469 554.333 9.99469 555.643 9.99469C556.523 9.99469 557.033 9.37469 557.033 8.41469C557.033 7.41469 556.453 6.77469 555.203 6.77469C554.723 6.77469 554.193 6.87469 553.753 7.03469L554.033 3.55469H556.913L557.153 2.99469H557.673L557.313 4.43469H554.713L554.593 5.99469ZM558.916 1.89469C558.916 1.10469 559.526 0.484687 560.366 0.484687C561.206 0.484687 561.816 1.10469 561.816 1.89469C561.816 2.68469 561.206 3.30469 560.366 3.30469C559.526 3.30469 558.916 2.68469 558.916 1.89469ZM559.456 1.89469C559.456 2.48469 559.846 2.80469 560.366 2.80469C560.886 2.80469 561.276 2.48469 561.276 1.89469C561.276 1.30469 560.886 0.984687 560.366 0.984687C559.846 0.984687 559.456 1.30469 559.456 1.89469Z" fill="#B5B1A9"/>
<path d="M594.485 7.83469H595.445V8.51469H594.485V10.5547H593.465V8.51469H590.485V7.83469L593.465 3.55469H594.485V7.83469ZM591.405 7.83469H593.465V4.87469L591.405 7.83469ZM598.868 10.6947C597.268 10.6947 596.448 9.49469 596.448 7.73469C596.448 5.52469 597.938 3.78469 600.428 3.43469L600.508 3.99469C598.938 4.26469 598.128 5.22469 597.808 6.46469C598.098 6.25469 598.488 6.09469 599.048 6.09469C600.328 6.09469 601.248 6.95469 601.248 8.27469C601.248 9.63469 600.338 10.6947 598.868 10.6947ZM598.768 6.77469C598.288 6.77469 597.958 6.89469 597.688 7.08469C597.658 7.35469 597.648 7.60469 597.648 7.87469C597.648 9.03469 597.958 10.0647 598.868 10.0647C599.548 10.0647 600.068 9.51469 600.068 8.35469C600.068 7.27469 599.608 6.77469 598.768 6.77469ZM601.52 1.89469C601.52 1.10469 602.13 0.484687 602.97 0.484687C603.81 0.484687 604.42 1.10469 604.42 1.89469C604.42 2.68469 603.81 3.30469 602.97 3.30469C602.13 3.30469 601.52 2.68469 601.52 1.89469ZM602.06 1.89469C602.06 2.48469 602.45 2.80469 602.97 2.80469C603.49 2.80469 603.88 2.48469 603.88 1.89469C603.88 1.30469 603.49 0.984687 602.97 0.984687C602.45 0.984687 602.06 1.30469 602.06 1.89469Z" fill="#B5B1A9"/>
<path d="M637.324 7.83469H638.284V8.51469H637.324V10.5547H636.304V8.51469H633.324V7.83469L636.304 3.55469H637.324V7.83469ZM634.244 7.83469H636.304V4.87469L634.244 7.83469ZM643.732 4.23469C642.522 5.96469 641.732 7.98469 641.412 10.5547H640.132C640.612 7.96469 641.642 5.92469 642.932 4.47469H640.452C639.772 4.47469 639.532 4.75469 639.372 5.35469H638.772L639.252 3.03469H639.812L639.892 3.55469H643.732V4.23469ZM644.281 1.89469C644.281 1.10469 644.891 0.484687 645.731 0.484687C646.571 0.484687 647.181 1.10469 647.181 1.89469C647.181 2.68469 646.571 3.30469 645.731 3.30469C644.891 3.30469 644.281 2.68469 644.281 1.89469ZM644.821 1.89469C644.821 2.48469 645.211 2.80469 645.731 2.80469C646.251 2.80469 646.641 2.48469 646.641 1.89469C646.641 1.30469 646.251 0.984687 645.731 0.984687C645.211 0.984687 644.821 1.30469 644.821 1.89469Z" fill="#B5B1A9"/>
<path d="M680.183 7.83469H681.143V8.51469H680.183V10.5547H679.163V8.51469H676.183V7.83469L679.163 3.55469H680.183V7.83469ZM677.103 7.83469H679.163V4.87469L677.103 7.83469ZM685.606 5.11469C685.606 4.47469 685.206 4.03469 684.486 4.03469C683.766 4.03469 683.366 4.47469 683.366 5.03469C683.366 5.59469 683.806 5.96469 684.686 6.43469C685.196 6.16469 685.606 5.75469 685.606 5.11469ZM683.646 6.93469C683.046 6.61469 682.366 6.16469 682.366 5.24469C682.366 4.11469 683.246 3.43469 684.486 3.43469C685.726 3.43469 686.626 4.11469 686.626 5.07469C686.626 5.95469 685.886 6.48469 685.246 6.75469C686.096 7.18469 686.846 7.59469 686.846 8.71469C686.846 9.87469 685.766 10.6747 684.486 10.6747C683.196 10.6747 682.166 9.87469 682.166 8.79469C682.166 7.79469 682.886 7.30469 683.646 6.93469ZM683.206 8.79469C683.206 9.55469 683.686 10.0747 684.486 10.0747C685.286 10.0747 685.726 9.55469 685.726 8.87469C685.726 8.07469 684.926 7.60469 684.206 7.23469C683.636 7.66469 683.206 8.01469 683.206 8.79469ZM687.023 1.89469C687.023 1.10469 687.633 0.484687 688.473 0.484687C689.313 0.484687 689.923 1.10469 689.923 1.89469C689.923 2.68469 689.313 3.30469 688.473 3.30469C687.633 3.30469 687.023 2.68469 687.023 1.89469ZM687.563 1.89469C687.563 2.48469 687.953 2.80469 688.473 2.80469C688.993 2.80469 689.383 2.48469 689.383 1.89469C689.383 1.30469 688.993 0.984687 688.473 0.984687C687.953 0.984687 687.563 1.30469 687.563 1.89469Z" fill="#B5B1A9"/>
<path d="M723.061 7.83469H724.021V8.51469H723.061V10.5547H722.041V8.51469H719.061V7.83469L722.041 3.55469H723.061V7.83469ZM719.981 7.83469H722.041V4.87469L719.981 7.83469ZM727.196 3.43469C728.796 3.43469 729.616 4.63469 729.616 6.39469C729.616 8.60469 728.126 10.3447 725.636 10.6947L725.556 10.1347C727.116 9.86469 727.926 8.92469 728.246 7.67469C727.966 7.87469 727.576 8.03469 727.016 8.03469C725.736 8.03469 724.816 7.17469 724.816 5.85469C724.816 4.49469 725.726 3.43469 727.196 3.43469ZM727.296 7.35469C727.776 7.35469 728.096 7.23469 728.366 7.04469C728.396 6.79469 728.416 6.52469 728.416 6.25469C728.416 5.09469 728.106 4.06469 727.196 4.06469C726.516 4.06469 725.996 4.61469 725.996 5.77469C725.996 6.85469 726.456 7.35469 727.296 7.35469ZM729.745 1.89469C729.745 1.10469 730.355 0.484687 731.195 0.484687C732.035 0.484687 732.645 1.10469 732.645 1.89469C732.645 2.68469 732.035 3.30469 731.195 3.30469C730.355 3.30469 729.745 2.68469 729.745 1.89469ZM730.285 1.89469C730.285 2.48469 730.675 2.80469 731.195 2.80469C731.715 2.80469 732.105 2.48469 732.105 1.89469C732.105 1.30469 731.715 0.984687 731.195 0.984687C730.675 0.984687 730.285 1.30469 730.285 1.89469Z" fill="#B5B1A9"/>
<path d="M762.963 5.99469C763.273 5.91469 763.633 5.85469 764.023 5.85469C765.493 5.85469 766.523 6.72469 766.523 8.20469C766.523 9.67469 765.523 10.6747 763.963 10.6747C762.653 10.6747 761.723 9.94469 761.723 9.17469C761.723 8.77469 761.963 8.55469 762.293 8.55469C763.143 8.55469 762.703 9.99469 764.013 9.99469C764.893 9.99469 765.403 9.37469 765.403 8.41469C765.403 7.41469 764.823 6.77469 763.573 6.77469C763.093 6.77469 762.563 6.87469 762.123 7.03469L762.403 3.55469H765.283L765.523 2.99469H766.043L765.683 4.43469H763.083L762.963 5.99469ZM770.166 10.0547C771.096 10.0547 771.546 8.86469 771.546 7.05469C771.546 5.25469 771.096 4.05469 770.166 4.05469C769.236 4.05469 768.786 5.25469 768.786 7.05469C768.786 8.85469 769.236 10.0547 770.166 10.0547ZM770.166 10.6747C768.436 10.6747 767.586 9.01469 767.586 7.05469C767.586 5.09469 768.436 3.43469 770.166 3.43469C771.896 3.43469 772.746 5.09469 772.746 7.05469C772.746 9.01469 771.896 10.6747 770.166 10.6747ZM772.852 1.89469C772.852 1.10469 773.462 0.484687 774.302 0.484687C775.142 0.484687 775.752 1.10469 775.752 1.89469C775.752 2.68469 775.142 3.30469 774.302 3.30469C773.462 3.30469 772.852 2.68469 772.852 1.89469ZM773.392 1.89469C773.392 2.48469 773.782 2.80469 774.302 2.80469C774.822 2.80469 775.212 2.48469 775.212 1.89469C775.212 1.30469 774.822 0.984687 774.302 0.984687C773.782 0.984687 773.392 1.30469 773.392 1.89469Z" fill="#B5B1A9"/>
<path d="M805.842 5.99469C806.152 5.91469 806.512 5.85469 806.902 5.85469C808.372 5.85469 809.402 6.72469 809.402 8.20469C809.402 9.67469 808.402 10.6747 806.842 10.6747C805.532 10.6747 804.602 9.94469 804.602 9.17469C804.602 8.77469 804.842 8.55469 805.172 8.55469C806.022 8.55469 805.582 9.99469 806.892 9.99469C807.772 9.99469 808.282 9.37469 808.282 8.41469C808.282 7.41469 807.702 6.77469 806.452 6.77469C805.972 6.77469 805.442 6.87469 805.002 7.03469L805.282 3.55469H808.162L808.402 2.99469H808.922L808.562 4.43469H805.962L805.842 5.99469ZM811.395 4.99469H810.415V4.43469L811.975 3.55469H812.415V9.75469L813.335 9.95469V10.5547H810.455V9.95469L811.395 9.75469V4.99469ZM813.573 1.89469C813.573 1.10469 814.183 0.484687 815.023 0.484687C815.863 0.484687 816.473 1.10469 816.473 1.89469C816.473 2.68469 815.863 3.30469 815.023 3.30469C814.183 3.30469 813.573 2.68469 813.573 1.89469ZM814.113 1.89469C814.113 2.48469 814.503 2.80469 815.023 2.80469C815.543 2.80469 815.933 2.48469 815.933 1.89469C815.933 1.30469 815.543 0.984687 815.023 0.984687C814.503 0.984687 814.113 1.30469 814.113 1.89469Z" fill="#B5B1A9"/>
<path d="M846.895 5.99469C847.205 5.91469 847.565 5.85469 847.955 5.85469C849.425 5.85469 850.455 6.72469 850.455 8.20469C850.455 9.67469 849.455 10.6747 847.895 10.6747C846.585 10.6747 845.655 9.94469 845.655 9.17469C845.655 8.77469 845.895 8.55469 846.225 8.55469C847.075 8.55469 846.635 9.99469 847.945 9.99469C848.825 9.99469 849.335 9.37469 849.335 8.41469C849.335 7.41469 848.755 6.77469 847.505 6.77469C847.025 6.77469 846.495 6.87469 846.055 7.03469L846.335 3.55469H849.215L849.455 2.99469H849.975L849.615 4.43469H847.015L846.895 5.99469ZM854.958 9.59469L855.358 8.79469H855.998L855.558 10.5547H851.358V9.91469L853.278 7.45469C854.078 6.44469 854.518 5.84469 854.518 5.11469C854.518 4.55469 854.198 4.15469 853.518 4.15469C852.838 4.15469 852.398 4.55469 852.158 5.43469L851.518 5.27469C851.758 4.10469 852.448 3.43469 853.698 3.43469C854.938 3.43469 855.718 4.11469 855.718 5.07469C855.718 6.00469 855.078 6.67469 854.038 7.79469L852.358 9.59469H854.958ZM856.12 1.89469C856.12 1.10469 856.73 0.484687 857.57 0.484687C858.41 0.484687 859.02 1.10469 859.02 1.89469C859.02 2.68469 858.41 3.30469 857.57 3.30469C856.73 3.30469 856.12 2.68469 856.12 1.89469ZM856.66 1.89469C856.66 2.48469 857.05 2.80469 857.57 2.80469C858.09 2.80469 858.48 2.48469 858.48 1.89469C858.48 1.30469 858.09 0.984687 857.57 0.984687C857.05 0.984687 856.66 1.30469 856.66 1.89469Z" fill="#B5B1A9"/>
<path d="M889.612 5.99469C889.922 5.91469 890.282 5.85469 890.672 5.85469C892.142 5.85469 893.172 6.72469 893.172 8.20469C893.172 9.67469 892.172 10.6747 890.612 10.6747C889.302 10.6747 888.372 9.94469 888.372 9.17469C888.372 8.77469 888.612 8.55469 888.942 8.55469C889.792 8.55469 889.352 9.99469 890.662 9.99469C891.542 9.99469 892.052 9.37469 892.052 8.41469C892.052 7.41469 891.472 6.77469 890.222 6.77469C889.742 6.77469 889.212 6.87469 888.772 7.03469L889.052 3.55469H891.932L892.172 2.99469H892.692L892.332 4.43469H889.732L889.612 5.99469ZM895.515 7.15469V6.47469H895.675C896.915 6.47469 897.435 5.83469 897.435 5.19469C897.435 4.55469 896.995 4.15469 896.275 4.15469C895.545 4.15469 895.065 4.48469 894.835 5.15469L894.235 4.99469C894.555 3.99469 895.345 3.43469 896.515 3.43469C897.675 3.43469 898.555 4.03469 898.555 5.03469C898.555 6.04469 897.715 6.51469 896.715 6.75469V6.79469C897.785 6.92469 898.755 7.42469 898.755 8.59469C898.755 9.75469 897.835 10.6747 896.435 10.6747C895.035 10.6747 894.075 10.1147 894.075 9.35469C894.075 9.03469 894.275 8.83469 894.595 8.83469C895.475 8.83469 895.475 10.0347 896.435 10.0347C897.115 10.0347 897.635 9.51469 897.635 8.63469C897.635 7.76469 897.115 7.15469 895.675 7.15469H895.515ZM899.003 1.89469C899.003 1.10469 899.613 0.484687 900.453 0.484687C901.293 0.484687 901.903 1.10469 901.903 1.89469C901.903 2.68469 901.293 3.30469 900.453 3.30469C899.613 3.30469 899.003 2.68469 899.003 1.89469ZM899.543 1.89469C899.543 2.48469 899.933 2.80469 900.453 2.80469C900.973 2.80469 901.363 2.48469 901.363 1.89469C901.363 1.30469 900.973 0.984687 900.453 0.984687C899.933 0.984687 899.543 1.30469 899.543 1.89469Z" fill="#B5B1A9"/>
<path d="M932.378 5.99469C932.688 5.91469 933.048 5.85469 933.438 5.85469C934.908 5.85469 935.938 6.72469 935.938 8.20469C935.938 9.67469 934.938 10.6747 933.378 10.6747C932.068 10.6747 931.138 9.94469 931.138 9.17469C931.138 8.77469 931.378 8.55469 931.708 8.55469C932.558 8.55469 932.118 9.99469 933.428 9.99469C934.308 9.99469 934.818 9.37469 934.818 8.41469C934.818 7.41469 934.238 6.77469 932.988 6.77469C932.508 6.77469 931.978 6.87469 931.538 7.03469L931.818 3.55469H934.698L934.938 2.99469H935.458L935.098 4.43469H932.498L932.378 5.99469ZM940.691 7.83469H941.651V8.51469H940.691V10.5547H939.671V8.51469H936.691V7.83469L939.671 3.55469H940.691V7.83469ZM937.611 7.83469H939.671V4.87469L937.611 7.83469ZM941.837 1.89469C941.837 1.10469 942.447 0.484687 943.287 0.484687C944.127 0.484687 944.737 1.10469 944.737 1.89469C944.737 2.68469 944.127 3.30469 943.287 3.30469C942.447 3.30469 941.837 2.68469 941.837 1.89469ZM942.377 1.89469C942.377 2.48469 942.767 2.80469 943.287 2.80469C943.807 2.80469 944.197 2.48469 944.197 1.89469C944.197 1.30469 943.807 0.984687 943.287 0.984687C942.767 0.984687 942.377 1.30469 942.377 1.89469Z" fill="#B5B1A9"/>
<path d="M974.885 5.99469C975.195 5.91469 975.555 5.85469 975.945 5.85469C977.415 5.85469 978.445 6.72469 978.445 8.20469C978.445 9.67469 977.445 10.6747 975.885 10.6747C974.575 10.6747 973.645 9.94469 973.645 9.17469C973.645 8.77469 973.885 8.55469 974.215 8.55469C975.065 8.55469 974.625 9.99469 975.935 9.99469C976.815 9.99469 977.325 9.37469 977.325 8.41469C977.325 7.41469 976.745 6.77469 975.495 6.77469C975.015 6.77469 974.485 6.87469 974.045 7.03469L974.325 3.55469H977.205L977.445 2.99469H977.965L977.605 4.43469H975.005L974.885 5.99469ZM980.607 5.99469C980.917 5.91469 981.277 5.85469 981.667 5.85469C983.137 5.85469 984.167 6.72469 984.167 8.20469C984.167 9.67469 983.167 10.6747 981.607 10.6747C980.297 10.6747 979.367 9.94469 979.367 9.17469C979.367 8.77469 979.607 8.55469 979.937 8.55469C980.787 8.55469 980.347 9.99469 981.657 9.99469C982.537 9.99469 983.047 9.37469 983.047 8.41469C983.047 7.41469 982.467 6.77469 981.217 6.77469C980.737 6.77469 980.207 6.87469 979.767 7.03469L980.047 3.55469H982.927L983.167 2.99469H983.687L983.327 4.43469H980.727L980.607 5.99469ZM984.93 1.89469C984.93 1.10469 985.54 0.484687 986.38 0.484687C987.22 0.484687 987.83 1.10469 987.83 1.89469C987.83 2.68469 987.22 3.30469 986.38 3.30469C985.54 3.30469 984.93 2.68469 984.93 1.89469ZM985.47 1.89469C985.47 2.48469 985.86 2.80469 986.38 2.80469C986.9 2.80469 987.29 2.48469 987.29 1.89469C987.29 1.30469 986.9 0.984687 986.38 0.984687C985.86 0.984687 985.47 1.30469 985.47 1.89469Z" fill="#B5B1A9"/>
</g>
<defs>
<clipPath id="clip0_1390_15058">
<rect width="1024" height="876" fill="white"/>
</clipPath>
</defs>
</svg>
