<svg width="262" height="46" viewBox="0 0 262 46" fill="none" xmlns="http://www.w3.org/2000/svg">
<rect x="0.5" y="0.679688" width="261" height="44" rx="22" stroke="#B5B1A9"/>
<path d="M23 17.1797L24.4164 21.7633H29L25.2918 24.5961L26.7082 29.1797L23 26.3469L19.2918 29.1797L20.7082 24.5961L17 21.7633H21.5836L23 17.1797Z" fill="black"/>
<path d="M40.934 18.2117C43.174 18.2117 44.322 19.8917 44.322 22.3557C44.322 25.4497 42.236 27.8857 38.75 28.3757L38.638 27.5917C40.822 27.2137 41.956 25.8977 42.404 24.1477C42.012 24.4277 41.466 24.6517 40.682 24.6517C38.89 24.6517 37.602 23.4477 37.602 21.5997C37.602 19.6957 38.876 18.2117 40.934 18.2117ZM41.074 23.6997C41.746 23.6997 42.194 23.5317 42.572 23.2657C42.614 22.9157 42.642 22.5377 42.642 22.1597C42.642 20.5357 42.208 19.0937 40.934 19.0937C39.982 19.0937 39.254 19.8637 39.254 21.4877C39.254 22.9997 39.898 23.6997 41.074 23.6997ZM45.4559 27.3397C45.4559 26.7797 45.8479 26.3317 46.4639 26.3317C47.0799 26.3317 47.4719 26.7797 47.4719 27.3397C47.4719 27.8997 47.0799 28.3477 46.4639 28.3477C45.8479 28.3477 45.4559 27.8997 45.4559 27.3397ZM54.354 24.3717H55.698V25.3237H54.354V28.1797H52.926V25.3237H48.754V24.3717L52.926 18.3797H54.354V24.3717ZM50.042 24.3717H52.926V20.2277L50.042 24.3717Z" fill="black"/>
<rect x="76.5" y="4.67969" width="181" height="36" rx="18" stroke="black"/>
<path d="M96.65 22.2997H97.75C98.85 22.2997 99.61 22.0197 99.61 21.0997C99.61 20.2097 98.91 19.8397 97.88 19.8397C97.47 19.8397 97.04 19.8997 96.65 19.9797V22.2997ZM98.67 22.8997C99.02 23.1897 99.39 23.5097 99.95 24.1797L100.99 25.4197L101.71 25.4997V26.1797H100.03C99.67 25.7397 98.19 23.7997 97.43 22.9597H96.65V25.3797L97.65 25.5397V26.1797H94.51V25.5397L95.49 25.3797V19.9797L94.51 19.8197V19.1797H96.61C97.04 19.1797 97.71 19.1597 98.03 19.1597C99.88 19.1597 100.99 19.8597 100.99 21.0497C100.99 22.2797 99.82 22.8197 98.67 22.8997ZM107.011 25.3497C107.481 25.4597 108.011 25.5197 108.731 25.5197C109.791 25.5197 110.681 25.3797 111.151 24.6197H111.991L111.111 26.1797H104.871V25.5397L105.851 25.3797V19.9797L104.871 19.8197V19.1797H110.751L111.591 20.4997H110.871C110.341 19.9497 109.381 19.8197 108.521 19.8197C107.801 19.8197 107.281 19.8897 107.011 19.9597V22.2597H109.531L109.691 21.3597H110.351V23.8397H109.691L109.531 22.9597H107.011V25.3497ZM118.844 19.1797L121.104 25.3797L121.904 25.5397V26.1797H118.964V25.5397L119.904 25.3797L119.364 23.8197H117.044L116.484 25.3797L117.324 25.5397V26.1797H114.784V25.5397L115.624 25.3797L117.944 19.1797H118.844ZM117.284 23.1597H119.124L118.224 20.5797H118.184L117.284 23.1597ZM127.236 25.3597C127.546 25.4297 128.036 25.4997 128.546 25.4997C130.346 25.4997 131.116 24.4597 131.116 22.6497C131.116 20.8097 130.346 19.8397 128.546 19.8397C128.106 19.8397 127.626 19.8997 127.236 19.9797V25.3597ZM132.456 22.6697C132.456 24.7397 131.056 26.2197 128.596 26.2197C128.196 26.2197 127.606 26.1797 127.176 26.1797H125.096V25.5397L126.076 25.3797V19.9797L125.096 19.8197V19.1797H127.196C127.596 19.1797 128.266 19.1597 128.546 19.1597C131.016 19.1597 132.456 20.5797 132.456 22.6697ZM143.74 22.2997H144.84C145.94 22.2997 146.7 22.0197 146.7 21.0997C146.7 20.2097 146 19.8397 144.97 19.8397C144.56 19.8397 144.13 19.8997 143.74 19.9797V22.2997ZM145.76 22.8997C146.11 23.1897 146.48 23.5097 147.04 24.1797L148.08 25.4197L148.8 25.4997V26.1797H147.12C146.76 25.7397 145.28 23.7997 144.52 22.9597H143.74V25.3797L144.74 25.5397V26.1797H141.6V25.5397L142.58 25.3797V19.9797L141.6 19.8197V19.1797H143.7C144.13 19.1797 144.8 19.1597 145.12 19.1597C146.97 19.1597 148.08 19.8597 148.08 21.0497C148.08 22.2797 146.91 22.8197 145.76 22.8997ZM154.101 25.3497C154.571 25.4597 155.101 25.5197 155.821 25.5197C156.881 25.5197 157.771 25.3797 158.241 24.6197H159.081L158.201 26.1797H151.961V25.5397L152.941 25.3797V19.9797L151.961 19.8197V19.1797H157.841L158.681 20.4997H157.961C157.431 19.9497 156.471 19.8197 155.611 19.8197C154.891 19.8197 154.371 19.8897 154.101 19.9597V22.2597H156.621L156.781 21.3597H157.441V23.8397H156.781L156.621 22.9597H154.101V25.3497ZM164.984 26.1797L162.704 19.9797L161.904 19.8197V19.1797H164.864V19.8197L163.894 19.9797L165.644 24.6597H165.684L167.414 19.9797L166.564 19.8197V19.1797H169.024V19.8197L168.184 19.9797L165.904 26.1797H164.984ZM172.186 19.8197V19.1797H175.226V19.8197L174.286 19.9797V25.3797L175.226 25.5397V26.1797H172.186V25.5397L173.126 25.3797V19.9797L172.186 19.8197ZM180.908 25.3497C181.378 25.4597 181.908 25.5197 182.628 25.5197C183.688 25.5197 184.578 25.3797 185.048 24.6197H185.888L185.008 26.1797H178.768V25.5397L179.748 25.3797V19.9797L178.768 19.8197V19.1797H184.648L185.488 20.4997H184.768C184.238 19.9497 183.278 19.8197 182.418 19.8197C181.698 19.8197 181.178 19.8897 180.908 19.9597V22.2597H183.428L183.588 21.3597H184.248V23.8397H183.588L183.428 22.9597H180.908V25.3497ZM193.551 19.9797L192.731 19.8197V19.1797H195.751V19.8197L194.791 19.9797L196.331 24.3197H196.371L197.951 19.9797L197.071 19.8197V19.1797H199.611V19.8197L198.811 19.9797L196.611 26.1797H195.691L194.231 21.8797H194.191L192.671 26.1797H191.771L189.491 19.9797L188.691 19.8197V19.1797H191.611V19.8197L190.751 19.9797L192.391 24.3797H192.431L193.811 20.7397L193.551 19.9797ZM202.685 24.1797H203.445C204.185 24.9497 205.305 25.5597 206.325 25.5597C207.325 25.5597 207.905 25.0997 207.905 24.4597C207.905 23.7397 207.095 23.4097 205.685 23.2197L205.225 23.1597C203.905 22.9997 202.725 22.4497 202.725 21.0597C202.725 19.8597 203.805 19.0597 205.245 19.0597C206.085 19.0597 206.725 19.2997 207.245 19.6997L207.405 19.1797H207.925L208.725 21.1397H208.005C207.285 20.3797 206.285 19.8197 205.245 19.8197C204.405 19.8197 203.765 20.1397 203.765 20.7797C203.765 21.3697 204.405 21.6497 205.295 21.7997L205.955 21.9097C207.445 22.1497 208.965 22.6697 208.965 24.1397C208.965 25.4997 207.915 26.2997 206.325 26.2997C205.405 26.2997 204.685 25.9797 204.205 25.5397L203.965 26.1797H203.365L202.685 24.1797Z" fill="black"/>
<path d="M240.354 23.0332C240.549 22.838 240.549 22.5214 240.354 22.3261L237.172 19.1442C236.976 18.9489 236.66 18.9489 236.464 19.1442C236.269 19.3394 236.269 19.656 236.464 19.8513L239.293 22.6797L236.464 25.5081C236.269 25.7034 236.269 26.02 236.464 26.2152C236.66 26.4105 236.976 26.4105 237.172 26.2152L240.354 23.0332ZM221 23.1797H240V22.1797H221V23.1797Z" fill="black"/>
</svg>
