<svg width="54" height="54" viewBox="0 0 54 54" fill="none" xmlns="http://www.w3.org/2000/svg">
<rect x="0.5" y="0.5" width="53" height="53" rx="26.5" stroke="black"/>
<path d="M17.6668 23.7601V22.8641H21.9228V23.7601L20.6068 23.9841V31.5441L21.9228 31.7681V32.6641H17.6668V31.7681L18.9828 31.5441V23.9841L17.6668 23.7601ZM34.4439 22.6961H34.8919L36.2919 25.4401H35.1999C34.2479 24.3621 33.0579 23.7601 31.7139 23.7601C29.7399 23.7601 28.7039 25.0761 28.7039 27.7081C28.7039 30.3401 29.7119 31.7401 31.7839 31.7401C33.0719 31.7401 34.2479 31.1801 34.2479 29.6121V28.7721L32.8759 28.6321V27.7081H37.1879V28.6321L35.8439 28.7721V32.2721H35.2839C35.1159 32.1181 34.9619 32.0481 34.6959 32.0481C33.9539 32.0481 33.3379 32.8321 31.5039 32.8321C28.5499 32.8321 26.8279 30.8161 26.8279 27.7781C26.8279 24.7121 28.5779 22.6961 31.4479 22.6961C32.6239 22.6961 33.4639 23.0181 34.1359 23.5641L34.4439 22.6961Z" fill="black"/>
</svg>
