<svg width="304" height="60" viewBox="0 0 304 60" fill="none" xmlns="http://www.w3.org/2000/svg">
<rect x="0.5" y="0.5" width="303" height="59" rx="29.5" stroke="#B5B1A9"/>
<path d="M30 22L31.8885 28.1115H38L33.0557 31.8885L34.9443 38L30 34.2229L25.0557 38L26.9443 31.8885L22 28.1115H28.1115L30 22Z" fill="black"/>
<path d="M53.058 23.684C55.938 23.684 57.414 25.844 57.414 29.012C57.414 32.99 54.732 36.122 50.25 36.752L50.106 35.744C52.914 35.258 54.372 33.566 54.948 31.316C54.444 31.676 53.742 31.964 52.734 31.964C50.43 31.964 48.774 30.416 48.774 28.04C48.774 25.592 50.412 23.684 53.058 23.684ZM53.238 30.74C54.102 30.74 54.678 30.524 55.164 30.182C55.218 29.732 55.254 29.246 55.254 28.76C55.254 26.672 54.696 24.818 53.058 24.818C51.834 24.818 50.898 25.808 50.898 27.896C50.898 29.84 51.726 30.74 53.238 30.74ZM58.8719 35.42C58.8719 34.7 59.3759 34.124 60.1679 34.124C60.9599 34.124 61.4639 34.7 61.4639 35.42C61.4639 36.14 60.9599 36.716 60.1679 36.716C59.3759 36.716 58.8719 36.14 58.8719 35.42ZM70.3123 31.604H72.0403V32.828H70.3123V36.5H68.4763V32.828H63.1123V31.604L68.4763 23.9H70.3123V31.604ZM64.7683 31.604H68.4763V26.276L64.7683 31.604Z" fill="black"/>
<rect x="100" y="5" width="199" height="50" rx="25" fill="black"/>
<path d="M127.71 33.88C128.312 33.992 129.082 34.076 129.698 34.076C131.266 34.076 132.33 33.544 132.33 32.298C132.33 31.024 131.196 30.464 129.362 30.464H127.71V33.88ZM127.71 29.512H129.138C130.608 29.512 131.77 29.162 131.77 27.818C131.77 26.586 130.832 26.11 129.474 26.11C128.858 26.11 128.256 26.208 127.71 26.32V29.512ZM134.234 32.382C134.234 34.272 132.47 35.056 130.286 35.056C129.698 35.056 128.522 35 127.654 35H124.714V34.09L126.086 33.894V26.306L124.714 26.11V25.2H127.458C128.242 25.2 129.068 25.144 129.67 25.144C131.784 25.144 133.73 25.872 133.73 27.594C133.73 29.05 132.33 29.54 131.154 29.848V29.904C132.988 30.198 134.234 30.772 134.234 32.382ZM144.121 34.104C146.081 34.104 147.173 32.718 147.173 30.016C147.173 27.398 146.081 26.04 144.121 26.04C142.161 26.04 141.069 27.426 141.069 30.128C141.069 32.746 142.161 34.104 144.121 34.104ZM144.121 35.168C141.125 35.168 139.221 33.152 139.221 30.128C139.221 27.02 141.125 25.032 144.121 25.032C147.117 25.032 149.021 27.048 149.021 30.072C149.021 33.18 147.117 35.168 144.121 35.168ZM158.955 34.104C160.915 34.104 162.007 32.718 162.007 30.016C162.007 27.398 160.915 26.04 158.955 26.04C156.995 26.04 155.903 27.426 155.903 30.128C155.903 32.746 156.995 34.104 158.955 34.104ZM158.955 35.168C155.959 35.168 154.055 33.152 154.055 30.128C154.055 27.02 155.959 25.032 158.955 25.032C161.951 25.032 163.855 27.048 163.855 30.072C163.855 33.18 161.951 35.168 158.955 35.168ZM176.158 26.32L174.73 26.096V25.2H178.93V26.096L177.698 26.32L173.946 29.512L178.566 33.88L179.49 34.09V35H174.954V34.104L176.298 33.88L172.77 30.548L171.678 31.444V33.88L172.994 34.104V35H168.738V34.104L170.054 33.88V26.32L168.738 26.096V25.2H172.994V26.11L171.678 26.32V30.128L176.158 26.32ZM183.64 26.096V25.2H187.896V26.096L186.58 26.32V33.88L187.896 34.104V35H183.64V34.104L184.956 33.88V26.32L183.64 26.096ZM192.911 26.096V25.2H196.663L200.779 32.144H200.835V26.32L199.463 26.096V25.2H203.439V26.096L202.095 26.32V35.042H200.527L195.487 26.488H195.431V33.88L197.055 34.104V35H192.855V34.104L194.171 33.88V26.32L192.911 26.096ZM215.771 25.032H216.219L217.619 27.776H216.527C215.575 26.698 214.385 26.096 213.041 26.096C211.067 26.096 210.031 27.412 210.031 30.044C210.031 32.676 211.039 34.076 213.111 34.076C214.399 34.076 215.575 33.516 215.575 31.948V31.108L214.203 30.968V30.044H218.515V30.968L217.171 31.108V34.608H216.611C216.443 34.454 216.289 34.384 216.023 34.384C215.281 34.384 214.665 35.168 212.831 35.168C209.877 35.168 208.155 33.152 208.155 30.114C208.155 27.048 209.905 25.032 212.775 25.032C213.951 25.032 214.791 25.354 215.463 25.9L215.771 25.032Z" fill="white"/>
<path d="M275.354 30.3536C275.549 30.1583 275.549 29.8417 275.354 29.6464L272.172 26.4645C271.976 26.2692 271.66 26.2692 271.464 26.4645C271.269 26.6597 271.269 26.9763 271.464 27.1716L274.293 30L271.464 32.8284C271.269 33.0237 271.269 33.3403 271.464 33.5355C271.66 33.7308 271.976 33.7308 272.172 33.5355L275.354 30.3536ZM250 30.5H275V29.5H250V30.5Z" fill="white"/>
</svg>
